<svg version="1.1" id="Layer_1" xmlns="http://www.w3.org/2000/svg" xmlns:xlink="http://www.w3.org/1999/xlink" x="0px" y="0px"
	 width="100%" viewBox="0 0 512 509" enable-background="new 0 0 512 509" xml:space="preserve">
<path fill="#000000" opacity="1.000000" stroke="none" 
	d="
M281.000000,510.000000 
	C187.356140,510.000000 94.212280,510.000000 1.034210,510.000000 
	C1.034210,340.397675 1.034210,170.795349 1.034210,1.096511 
	C171.560501,1.096511 342.121063,1.096511 512.840820,1.096511 
	C512.840820,170.666550 512.840820,340.333252 512.840820,510.000000 
	C435.795380,510.000000 358.647675,510.000000 281.000000,510.000000 
M365.803192,399.012329 
	C372.417419,395.855591 379.031647,392.698853 386.244385,389.204559 
	C392.510834,384.506866 398.777252,379.809204 405.659485,374.833191 
	C410.911499,368.452789 416.163513,362.072357 421.917877,355.183960 
	C425.647644,347.472778 429.377380,339.761597 433.777466,331.738037 
	C439.622864,329.128265 445.468231,326.518494 452.086884,323.932617 
	C458.542236,319.763550 464.731750,315.326355 468.739746,307.771301 
	C473.883270,301.023041 477.195862,293.543701 477.999390,284.154144 
	C478.277222,276.435059 478.555054,268.716003 478.976959,260.101440 
	C478.745483,238.829086 469.503143,222.078583 451.398193,211.580536 
	C443.273254,206.869324 436.596069,202.672104 435.010498,192.177994 
	C429.339691,172.258804 416.981964,156.734772 401.715973,143.551132 
	C395.323883,138.031006 387.315155,134.382858 379.722870,129.240448 
	C371.816345,126.216026 363.909790,123.191597 355.292267,119.813393 
	C346.875092,118.169891 338.457916,116.526390 329.587677,114.159904 
	C319.390045,113.830009 309.192413,113.500114 298.118683,113.020508 
	C295.749878,113.068436 293.381104,113.116364 290.083923,113.015976 
	C282.829346,113.015976 275.574799,113.015976 268.039825,113.015976 
	C268.039825,103.672897 268.039825,94.893929 268.797943,86.006775 
	C276.837189,83.437332 283.420654,79.084648 287.707458,70.761139 
	C290.692902,64.397064 291.761932,57.861713 291.110168,50.727432 
	C289.142548,29.189501 266.057495,15.910698 246.201996,23.981220 
	C238.019180,26.336756 232.428284,31.703207 228.066422,39.717926 
	C219.245972,60.166534 228.881485,79.836845 248.166962,86.708946 
	C248.166962,89.710167 248.166962,92.852905 248.018158,96.922073 
	C248.018158,102.242928 248.018158,107.563774 248.018158,112.845566 
	C245.578796,112.975487 243.791519,113.070686 241.076996,113.016754 
	C231.052963,113.066719 221.028931,113.116684 210.081161,113.018166 
	C200.722412,113.734344 191.363647,114.450516 181.166229,115.019691 
	C172.762863,116.975227 164.359512,118.930763 155.160278,120.980888 
	C148.108841,123.709709 141.057388,126.438530 133.303299,129.235535 
	C127.520050,132.787125 121.736801,136.338730 115.321907,140.173279 
	C112.758446,142.140457 109.878876,143.810562 107.694984,146.134445 
	C102.583572,151.573471 97.805748,157.325974 92.268753,163.229477 
	C84.757713,173.015808 79.246780,183.742004 76.229843,196.366440 
	C75.845291,202.570465 73.745880,207.030624 67.021072,209.236191 
	C62.609924,210.682922 58.911636,214.303192 54.285275,217.217117 
	C49.840343,223.109207 45.395412,229.001312 40.304729,235.262726 
	C38.925377,240.509048 37.546021,245.755371 35.762951,251.754959 
	C35.564205,256.503662 35.365459,261.252350 35.026997,266.927338 
	C34.581402,277.177734 34.975220,287.379120 39.039879,296.958954 
	C46.637959,314.866547 60.224014,325.906433 78.887207,331.012817 
	C80.436249,331.436707 82.284897,332.777954 82.930801,334.182190 
	C90.202644,349.991150 99.936996,363.908783 112.978622,375.562775 
	C123.960716,385.376373 135.999054,393.283417 150.347321,398.755432 
	C156.564880,400.448090 162.782455,402.140747 169.709198,404.199036 
	C176.125580,405.171051 182.541962,406.143066 189.460037,407.816772 
	C197.640228,407.822235 205.820419,407.827698 214.928894,407.971802 
	C223.953323,407.925629 232.977753,407.879456 242.930038,407.971741 
	C253.620895,407.925568 264.311737,407.879425 275.930420,407.971619 
	C287.287903,407.925507 298.645386,407.879395 310.929626,407.971680 
	C322.620209,406.925568 334.310822,405.879456 346.788849,404.949738 
	C352.870850,403.006622 358.952881,401.063507 365.803192,399.012329 
z"/>
<path fill="#05C5FD" opacity="1.000000" stroke="none" 
	d="
M477.833740,284.996338 
	C477.195862,293.543701 473.883270,301.023041 468.112274,307.763367 
	C465.867493,305.885742 464.253754,304.012970 462.632294,302.146851 
	C444.940399,281.785309 427.302704,261.376099 409.489746,241.121017 
	C407.055847,238.353455 403.746613,236.355728 400.640625,233.666016 
	C398.535553,219.095016 393.456238,206.120422 385.083710,194.431671 
	C373.014313,177.581863 356.585052,167.044968 336.948792,160.728516 
	C333.730865,156.197968 330.719940,151.870499 327.309753,147.884583 
	C319.886230,139.207764 312.164185,130.785736 304.772308,122.082802 
	C302.499359,119.406738 300.901672,116.157173 298.994781,113.170212 
	C309.192413,113.500114 319.390045,113.830009 329.806702,114.895035 
	C330.677063,116.913109 331.103302,118.389603 332.014465,119.449036 
	C341.092194,130.003922 350.256439,140.484329 359.383331,150.996994 
	C370.028046,163.257965 380.646027,175.542175 391.302032,187.793289 
	C398.699463,196.298050 406.166168,204.742584 413.557739,213.252396 
	C423.878784,225.134872 434.164398,237.048141 444.454254,248.957672 
	C452.468781,258.233704 460.360016,267.619537 468.531555,276.754852 
	C471.274872,279.821716 474.713104,282.266968 477.833740,284.996338 
z"/>
<path fill="#0C42F9" opacity="1.000000" stroke="none" 
	d="
M214.000610,407.833160 
	C205.820419,407.827698 197.640228,407.822235 189.189270,407.108795 
	C182.843689,398.998535 176.884750,391.497162 170.664444,384.219177 
	C163.019958,375.274872 155.114532,366.554199 147.399628,357.669342 
	C137.409592,346.164368 127.531548,334.562134 117.538460,323.059845 
	C109.929596,314.301849 102.170685,305.674255 94.561203,296.916779 
	C84.349915,285.165009 74.226860,273.336578 64.049797,261.555023 
	C56.363152,252.656479 48.651180,243.779816 40.950478,234.893402 
	C45.395412,229.001312 49.840343,223.109207 54.900940,217.231796 
	C64.919624,227.912491 74.382874,238.526184 83.706612,249.261047 
	C91.185989,257.872406 98.373627,266.739563 105.948662,275.264038 
	C108.556702,278.198975 111.943733,280.441650 115.092026,283.439514 
	C115.152847,285.853088 114.700516,287.912659 115.103203,289.788727 
	C118.198715,304.210236 122.886650,317.945557 131.846405,329.996124 
	C143.456406,345.611237 158.878342,355.625427 177.067368,362.174927 
	C177.457153,363.250519 177.711182,364.076202 178.230560,364.669556 
	C188.014374,375.846893 197.911316,386.926666 207.582199,398.200439 
	C210.075912,401.107452 211.879822,404.606232 214.000610,407.833160 
z"/>
<path fill="#03D1FD" opacity="1.000000" stroke="none" 
	d="
M477.916565,284.575256 
	C474.713104,282.266968 471.274872,279.821716 468.531555,276.754852 
	C460.360016,267.619537 452.468781,258.233704 444.454254,248.957672 
	C434.164398,237.048141 423.878784,225.134872 413.557739,213.252396 
	C406.166168,204.742584 398.699463,196.298050 391.302032,187.793289 
	C380.646027,175.542175 370.028046,163.257965 359.383331,150.996994 
	C350.256439,140.484329 341.092194,130.003922 332.014465,119.449036 
	C331.103302,118.389603 330.677063,116.913109 330.033264,115.256531 
	C338.457916,116.526390 346.875092,118.169891 355.690582,120.325996 
	C367.248566,133.915024 378.361420,147.031769 389.584229,160.053741 
	C397.149170,168.831375 404.906647,177.442749 412.511047,186.186691 
	C422.824860,198.045959 433.074982,209.960602 443.351807,221.852036 
	C451.356598,231.114456 459.268280,240.459778 467.407257,249.602753 
	C470.977295,253.613144 475.010193,257.211487 478.832916,260.996918 
	C478.555054,268.716003 478.277222,276.435059 477.916565,284.575256 
z"/>
<path fill="#0B3CF9" opacity="1.000000" stroke="none" 
	d="
M40.627602,235.078064 
	C48.651180,243.779816 56.363152,252.656479 64.049797,261.555023 
	C74.226860,273.336578 84.349915,285.165009 94.561203,296.916779 
	C102.170685,305.674255 109.929596,314.301849 117.538460,323.059845 
	C127.531548,334.562134 137.409592,346.164368 147.399628,357.669342 
	C155.114532,366.554199 163.019958,375.274872 170.664444,384.219177 
	C176.884750,391.497162 182.843689,398.998535 188.938431,406.757935 
	C182.541962,406.143066 176.125580,405.171051 169.311462,403.675720 
	C166.451202,400.066284 164.077774,396.903839 161.510513,393.907440 
	C151.378922,382.082245 141.225174,370.275574 131.004059,358.527771 
	C123.278244,349.647980 115.370682,340.926117 107.663391,332.030518 
	C95.622772,318.133484 83.745880,304.094391 71.681580,290.218140 
	C61.457668,278.458679 51.085163,266.828064 40.727085,255.186081 
	C39.362766,253.652649 37.694279,252.389847 36.166664,251.001694 
	C37.546021,245.755371 38.925377,240.509048 40.627602,235.078064 
z"/>
<path fill="#0B36F9" opacity="1.000000" stroke="none" 
	d="
M149.963867,398.121368 
	C135.999054,393.283417 123.960716,385.376373 112.978622,375.562775 
	C99.936996,363.908783 90.202644,349.991150 82.930801,334.182190 
	C82.284897,332.777954 80.436249,331.436707 78.887207,331.012817 
	C60.224014,325.906433 46.637959,314.866547 39.039879,296.958954 
	C34.975220,287.379120 34.581402,277.177734 35.429676,266.506958 
	C38.379772,268.426636 41.167015,270.556549 43.433414,273.142883 
	C53.674469,284.829651 63.729572,296.679108 73.926056,308.405273 
	C83.694412,319.639130 93.591820,330.760712 103.364876,341.990509 
	C116.063812,356.582275 128.772934,371.166656 141.303833,385.902069 
	C144.525391,389.690369 147.094849,394.033264 149.963867,398.121368 
z"/>
<path fill="#05B5FC" opacity="1.000000" stroke="none" 
	d="
M248.166962,95.995644 
	C248.166962,92.852905 248.166962,89.710167 248.166962,86.708946 
	C228.881485,79.836845 219.245972,60.166534 228.481903,39.794621 
	C238.831406,51.314217 248.812332,62.716915 258.673035,74.222656 
	C261.953857,78.050858 264.926361,82.143318 268.039825,86.114960 
	C268.039825,94.893929 268.039825,103.672897 268.039825,113.015976 
	C275.574799,113.015976 282.829346,113.015976 290.589966,113.427605 
	C292.170166,115.491585 293.062469,117.303337 294.348236,118.770256 
	C302.283356,127.823380 310.442169,136.683975 318.241089,145.851456 
	C321.807861,150.044174 324.723938,154.790436 327.469543,159.284332 
	C318.668457,159.015488 310.332947,158.747971 301.996094,158.128174 
	C301.550934,156.575790 301.391754,155.137299 300.618103,154.213425 
	C294.667999,147.108139 288.609772,140.093140 282.563538,133.068665 
	C274.574585,123.787163 266.687225,114.413658 258.503632,105.306641 
	C255.421341,101.876541 251.633270,99.080658 248.166962,95.995644 
z"/>
<path fill="#0B4AF9" opacity="1.000000" stroke="none" 
	d="
M114.974922,283.000549 
	C111.943733,280.441650 108.556702,278.198975 105.948662,275.264038 
	C98.373627,266.739563 91.185989,257.872406 83.706612,249.261047 
	C74.382874,238.526184 64.919624,227.912491 55.205349,217.098251 
	C58.911636,214.303192 62.609924,210.682922 67.021072,209.236191 
	C73.745880,207.030624 75.845291,202.570465 76.869827,196.303864 
	C84.703194,204.220413 91.838974,212.252472 99.109276,220.160873 
	C104.357933,225.870193 109.785454,231.415085 115.214966,237.494339 
	C115.189461,252.970444 115.082191,267.985504 114.974922,283.000549 
z"/>
<path fill="#03D9FE" opacity="1.000000" stroke="none" 
	d="
M478.904938,260.549194 
	C475.010193,257.211487 470.977295,253.613144 467.407257,249.602753 
	C459.268280,240.459778 451.356598,231.114456 443.351807,221.852036 
	C433.074982,209.960602 422.824860,198.045959 412.511047,186.186691 
	C404.906647,177.442749 397.149170,168.831375 389.584229,160.053741 
	C378.361420,147.031769 367.248566,133.915024 356.046082,120.502884 
	C363.909790,123.191597 371.816345,126.216026 379.902496,129.918930 
	C387.940735,140.117493 395.711639,149.711716 403.682251,159.137115 
	C411.886383,168.838654 420.214752,178.438171 428.655609,187.934021 
	C430.437805,189.938950 432.943848,191.300461 435.116333,192.958435 
	C436.596069,202.672104 443.273254,206.869324 451.398193,211.580536 
	C469.503143,222.078583 478.745483,238.829086 478.904938,260.549194 
z"/>
<path fill="#0B39F9" opacity="1.000000" stroke="none" 
	d="
M150.155594,398.438416 
	C147.094849,394.033264 144.525391,389.690369 141.303833,385.902069 
	C128.772934,371.166656 116.063812,356.582275 103.364876,341.990509 
	C93.591820,330.760712 83.694412,319.639130 73.926056,308.405273 
	C63.729572,296.679108 53.674469,284.829651 43.433414,273.142883 
	C41.167015,270.556549 38.379772,268.426636 35.499535,266.043823 
	C35.365459,261.252350 35.564205,256.503662 35.964809,251.378326 
	C37.694279,252.389847 39.362766,253.652649 40.727085,255.186081 
	C51.085163,266.828064 61.457668,278.458679 71.681580,290.218140 
	C83.745880,304.094391 95.622772,318.133484 107.663391,332.030518 
	C115.370682,340.926117 123.278244,349.647980 131.004059,358.527771 
	C141.225174,370.275574 151.378922,382.082245 161.510513,393.907440 
	C164.077774,396.903839 166.451202,400.066284 168.956863,403.492920 
	C162.782455,402.140747 156.564880,400.448090 150.155594,398.438416 
z"/>
<path fill="#06B8FC" opacity="1.000000" stroke="none" 
	d="
M400.842682,234.001572 
	C403.746613,236.355728 407.055847,238.353455 409.489746,241.121017 
	C427.302704,261.376099 444.940399,281.785309 462.632294,302.146851 
	C464.253754,304.012970 465.867493,305.885742 467.795654,307.902771 
	C464.731750,315.326355 458.542236,319.763550 451.622559,323.514984 
	C450.154572,321.614136 449.289551,320.010590 448.123779,318.668182 
	C442.583282,312.288269 436.933594,306.003265 431.374115,299.639679 
	C422.986450,290.038849 414.698486,280.349945 406.213593,270.836304 
	C405.015411,269.492920 402.945221,268.927246 401.196594,267.539307 
	C401.023895,256.051849 400.933289,245.026703 400.842682,234.001572 
z"/>
<path fill="#0C55F9" opacity="1.000000" stroke="none" 
	d="
M115.133209,237.033295 
	C109.785454,231.415085 104.357933,225.870193 99.109276,220.160873 
	C91.838974,212.252472 84.703194,204.220413 77.201248,196.096436 
	C79.246780,183.742004 84.757713,173.015808 92.891991,163.237457 
	C94.138756,163.794525 94.837021,164.279114 95.374718,164.902252 
	C105.008125,176.066345 114.604492,187.262527 124.277626,198.391983 
	C124.963341,199.180939 126.183189,199.505661 127.079308,200.394745 
	C120.209785,211.911850 117.001022,224.253250 115.133209,237.033295 
z"/>
<path fill="#0C5FF9" opacity="1.000000" stroke="none" 
	d="
M127.154678,200.046234 
	C126.183189,199.505661 124.963341,199.180939 124.277626,198.391983 
	C114.604492,187.262527 105.008125,176.066345 95.374718,164.902252 
	C94.837021,164.279114 94.138756,163.794525 93.204041,163.098511 
	C97.805748,157.325974 102.583572,151.573471 107.694984,146.134445 
	C109.878876,143.810562 112.758446,142.140457 115.783447,140.342285 
	C126.575066,152.705765 136.905151,164.900253 147.062714,177.388428 
	C140.311676,185.136826 133.733185,192.591537 127.154678,200.046234 
z"/>
<path fill="#0B60F9" opacity="1.000000" stroke="none" 
	d="
M346.001404,404.833374 
	C334.310822,405.879456 322.620209,406.925568 310.459473,407.546509 
	C309.515961,406.105682 309.238007,404.924103 308.538635,404.100403 
	C302.354126,396.816742 296.024445,389.655731 289.880493,382.338562 
	C285.146088,376.700104 280.617249,370.889038 276.460510,365.078949 
	C289.281555,365.053253 301.639069,365.103333 314.042267,365.491913 
	C320.436005,373.431030 326.832336,380.992035 333.115601,388.645844 
	C337.491180,393.975769 341.711639,399.433014 346.001404,404.833374 
z"/>
<path fill="#04C3FD" opacity="1.000000" stroke="none" 
	d="
M268.418884,86.060867 
	C264.926361,82.143318 261.953857,78.050858 258.673035,74.222656 
	C248.812332,62.716915 238.831406,51.314217 228.752747,39.498985 
	C232.428284,31.703207 238.019180,26.336756 246.622772,24.286354 
	C247.228256,25.048841 247.306702,25.598843 247.613007,25.950214 
	C260.744873,41.014244 273.896942,56.060612 287.046570,71.109146 
	C283.420654,79.084648 276.837189,83.437332 268.418884,86.060867 
z"/>
<path fill="#0B57F9" opacity="1.000000" stroke="none" 
	d="
M275.997009,365.154724 
	C280.617249,370.889038 285.146088,376.700104 289.880493,382.338562 
	C296.024445,389.655731 302.354126,396.816742 308.538635,404.100403 
	C309.238007,404.924103 309.515961,406.105682 309.996094,407.477295 
	C298.645386,407.879395 287.287903,407.925507 275.460022,407.547943 
	C274.629578,406.229828 274.476868,405.154297 273.877869,404.468475 
	C266.286591,395.776611 258.525238,387.231049 251.037827,378.451538 
	C247.440109,374.232941 244.328796,369.599579 241.460648,365.077881 
	C253.281723,365.052734 264.639374,365.103729 275.997009,365.154724 
z"/>
<path fill="#0891FB" opacity="1.000000" stroke="none" 
	d="
M182.004898,115.166695 
	C191.363647,114.450516 200.722412,113.734344 210.585815,113.428978 
	C220.043091,124.376038 229.102890,134.823959 237.893723,145.493500 
	C241.244919,149.560913 243.979156,154.136658 246.528137,158.511108 
	C236.039169,158.521210 226.016647,158.500946 215.983398,158.146088 
	C213.972031,155.031296 212.166290,152.082642 209.935394,149.501434 
	C202.257538,140.617966 194.343689,131.937500 186.721436,123.007553 
	C184.768188,120.719193 183.557007,117.797447 182.004898,115.166695 
z"/>
<path fill="#0B4FF9" opacity="1.000000" stroke="none" 
	d="
M240.997223,365.153992 
	C244.328796,369.599579 247.440109,374.232941 251.037827,378.451538 
	C258.525238,387.231049 266.286591,395.776611 273.877869,404.468475 
	C274.476868,405.154297 274.629578,406.229828 274.996124,407.478760 
	C264.311737,407.879425 253.620895,407.925568 242.459778,407.548035 
	C241.515228,406.108704 241.243973,404.915771 240.535507,404.104736 
	C232.937439,395.407196 225.163651,386.860931 217.669312,378.075897 
	C214.184601,373.991058 211.205780,369.474609 208.461060,365.077759 
	C219.615402,365.052521 230.306320,365.103271 240.997223,365.153992 
z"/>
<path fill="#079FFB" opacity="1.000000" stroke="none" 
	d="
M246.994568,158.480743 
	C243.979156,154.136658 241.244919,149.560913 237.893723,145.493500 
	C229.102890,134.823959 220.043091,124.376038 211.047699,113.503220 
	C221.028931,113.116684 231.052963,113.066719 241.545242,113.447525 
	C242.373550,114.773651 242.529343,115.844193 243.124374,116.538048 
	C251.713425,126.553581 260.480865,136.418884 268.932220,146.548248 
	C271.991913,150.215424 274.328888,154.485580 276.529175,158.512451 
	C266.373352,158.523117 256.683960,158.501923 246.994568,158.480743 
z"/>
<path fill="#06ACFC" opacity="1.000000" stroke="none" 
	d="
M401.278656,268.001617 
	C402.945221,268.927246 405.015411,269.492920 406.213593,270.836304 
	C414.698486,280.349945 422.986450,290.038849 431.374115,299.639679 
	C436.933594,306.003265 442.583282,312.288269 448.123779,318.668182 
	C449.289551,320.010590 450.154572,321.614136 451.235901,323.503021 
	C445.468231,326.518494 439.622864,329.128265 433.134033,331.748962 
	C425.661560,324.175537 418.927795,316.502350 411.966492,309.041412 
	C408.007690,304.798431 403.676819,300.902557 399.548218,296.416321 
	C400.148163,286.655396 400.713409,277.328522 401.278656,268.001617 
z"/>
<path fill="#06ABFC" opacity="1.000000" stroke="none" 
	d="
M276.995636,158.480591 
	C274.328888,154.485580 271.991913,150.215424 268.932220,146.548248 
	C260.480865,136.418884 251.713425,126.553581 243.124374,116.538048 
	C242.529343,115.844193 242.373550,114.773651 242.008881,113.522079 
	C243.791519,113.070686 245.578796,112.975487 248.018158,112.845566 
	C248.018158,107.563774 248.018158,102.242928 248.092560,96.458862 
	C251.633270,99.080658 255.421341,101.876541 258.503632,105.306641 
	C266.687225,114.413658 274.574585,123.787163 282.563538,133.068665 
	C288.609772,140.093140 294.667999,147.108139 300.618103,154.213425 
	C301.391754,155.137299 301.550934,156.575790 301.529663,158.162262 
	C293.041626,158.525940 285.018616,158.503265 276.995636,158.480591 
z"/>
<path fill="#0983FA" opacity="1.000000" stroke="none" 
	d="
M181.585571,115.093193 
	C183.557007,117.797447 184.768188,120.719193 186.721436,123.007553 
	C194.343689,131.937500 202.257538,140.617966 209.935394,149.501434 
	C212.166290,152.082642 213.972031,155.031296 215.516953,158.176117 
	C205.372787,158.951813 195.684341,159.362900 185.995728,159.405243 
	C185.494904,157.692291 185.318985,156.069382 184.442276,155.047974 
	C177.329514,146.761154 170.016388,138.646118 162.918152,130.347153 
	C160.379944,127.379593 158.264542,124.050415 155.956146,120.886292 
	C164.359512,118.930763 172.762863,116.975227 181.585571,115.093193 
z"/>
<path fill="#0C48F9" opacity="1.000000" stroke="none" 
	d="
M207.997620,365.153778 
	C211.205780,369.474609 214.184601,373.991058 217.669312,378.075897 
	C225.163651,386.860931 232.937439,395.407196 240.535507,404.104736 
	C241.243973,404.915771 241.515228,406.108704 241.995850,407.478821 
	C232.977753,407.879456 223.953323,407.925629 214.464752,407.902466 
	C211.879822,404.606232 210.075912,401.107452 207.582199,398.200439 
	C197.911316,386.926666 188.014374,375.846893 178.230560,364.669556 
	C177.711182,364.076202 177.457153,363.250519 177.479950,362.175323 
	C187.919418,362.929688 197.958527,364.041748 207.997620,365.153778 
z"/>
<path fill="#0891FB" opacity="1.000000" stroke="none" 
	d="
M421.415497,355.691925 
	C416.163513,362.072357 410.911499,368.452789 405.208435,374.663177 
	C400.896423,370.219971 396.916382,366.047333 393.201599,361.650574 
	C387.271759,354.631989 381.518219,347.464417 375.848938,340.087830 
	C380.868591,333.493225 385.729431,327.170685 390.924805,320.984955 
	C401.311401,332.645142 411.363464,344.168549 421.415497,355.691925 
z"/>
<path fill="#079FFB" opacity="1.000000" stroke="none" 
	d="
M421.666687,355.437927 
	C411.363464,344.168549 401.311401,332.645142 391.042542,320.638428 
	C393.721619,312.386871 396.617554,304.618622 399.513489,296.850372 
	C403.676819,300.902557 408.007690,304.798431 411.966492,309.041412 
	C418.927795,316.502350 425.661560,324.175537 432.798859,331.905151 
	C429.377380,339.761597 425.647644,347.472778 421.666687,355.437927 
z"/>
<path fill="#0982FA" opacity="1.000000" stroke="none" 
	d="
M375.690125,340.359863 
	C381.518219,347.464417 387.271759,354.631989 393.201599,361.650574 
	C396.916382,366.047333 400.896423,370.219971 404.900574,374.802338 
	C398.777252,379.809204 392.510834,384.506866 385.629517,389.125793 
	C378.814850,382.002899 372.551788,375.013092 366.439209,367.894073 
	C362.834656,363.696014 359.468628,359.293152 356.203674,354.715942 
	C362.838043,349.752960 369.264069,345.056427 375.690125,340.359863 
z"/>
<path fill="#0A76FA" opacity="1.000000" stroke="none" 
	d="
M155.558212,120.933594 
	C158.264542,124.050415 160.379944,127.379593 162.918152,130.347153 
	C170.016388,138.646118 177.329514,146.761154 184.442276,155.047974 
	C185.318985,156.069382 185.494904,157.692291 185.604614,159.512573 
	C178.139420,162.253052 171.065186,164.517410 163.945831,166.444107 
	C158.303589,159.274078 152.678558,152.464325 147.118286,145.602112 
	C142.706390,140.157181 138.373764,134.647995 134.005951,129.167343 
	C141.057388,126.438530 148.108841,123.709709 155.558212,120.933594 
z"/>
<path fill="#03D1FD" opacity="1.000000" stroke="none" 
	d="
M287.377014,70.935143 
	C273.896942,56.060612 260.744873,41.014244 247.613007,25.950214 
	C247.306702,25.598843 247.228256,25.048841 247.001801,24.236805 
	C266.057495,15.910698 289.142548,29.189501 291.110168,50.727432 
	C291.761932,57.861713 290.692902,64.397064 287.377014,70.935143 
z"/>
<path fill="#0B6AF9" opacity="1.000000" stroke="none" 
	d="
M133.654633,129.201447 
	C138.373764,134.647995 142.706390,140.157181 147.118286,145.602112 
	C152.678558,152.464325 158.303589,159.274078 163.653839,166.645813 
	C158.016403,170.488358 152.625824,173.791550 147.235229,177.094727 
	C136.905151,164.900253 126.575066,152.705765 116.099274,140.200806 
	C121.736801,136.338730 127.520050,132.787125 133.654633,129.201447 
z"/>
<path fill="#0B75FA" opacity="1.000000" stroke="none" 
	d="
M355.995331,354.982391 
	C359.468628,359.293152 362.834656,363.696014 366.439209,367.894073 
	C372.551788,375.013092 378.814850,382.002899 385.330261,389.294586 
	C379.031647,392.698853 372.417419,395.855591 365.379028,398.712158 
	C357.736938,389.875000 350.453522,381.392120 343.334778,372.773254 
	C340.651245,369.524139 338.348999,365.960022 336.173401,362.353210 
	C342.980988,359.772064 349.488159,357.377228 355.995331,354.982391 
z"/>
<path fill="#0B6AF9" opacity="1.000000" stroke="none" 
	d="
M335.872955,362.539551 
	C338.348999,365.960022 340.651245,369.524139 343.334778,372.773254 
	C350.453522,381.392120 357.736938,389.875000 364.994873,398.766174 
	C358.952881,401.063507 352.870850,403.006622 346.395111,404.891541 
	C341.711639,399.433014 337.491180,393.975769 333.115601,388.645844 
	C326.832336,380.992035 320.436005,373.431030 314.499695,365.414856 
	C321.898651,364.179382 328.885803,363.359467 335.872955,362.539551 
z"/>
<path fill="#02DEFE" opacity="1.000000" stroke="none" 
	d="
M435.063416,192.568207 
	C432.943848,191.300461 430.437805,189.938950 428.655609,187.934021 
	C420.214752,178.438171 411.886383,168.838654 403.682251,159.137115 
	C395.711639,149.711716 387.940735,140.117493 380.061768,130.240509 
	C387.315155,134.382858 395.323883,138.031006 401.715973,143.551132 
	C416.981964,156.734772 429.339691,172.258804 435.063416,192.568207 
z"/>
<path fill="#13BCFC" opacity="1.000000" stroke="none" 
	d="
M327.935120,159.285645 
	C324.723938,154.790436 321.807861,150.044174 318.241089,145.851456 
	C310.442169,136.683975 302.283356,127.823380 294.348236,118.770256 
	C293.062469,117.303337 292.170166,115.491585 291.054138,113.501770 
	C293.381104,113.116364 295.749878,113.068436 298.556732,113.095360 
	C300.901672,116.157173 302.499359,119.406738 304.772308,122.082802 
	C312.164185,130.785736 319.886230,139.207764 327.309753,147.884583 
	C330.719940,151.870499 333.730865,156.197968 336.544189,160.743408 
	C333.422058,160.506073 330.678589,159.895859 327.935120,159.285645 
z"/>
<path fill="#FEFFFF" opacity="1.000000" stroke="none" 
	d="
M327.469543,159.284332 
	C330.678589,159.895859 333.422058,160.506073 336.570129,161.101379 
	C356.585052,167.044968 373.014313,177.581863 385.083710,194.431671 
	C393.456238,206.120422 398.535553,219.095016 400.640625,233.666016 
	C400.933289,245.026703 401.023895,256.051849 401.196594,267.539307 
	C400.713409,277.328522 400.148163,286.655396 399.548218,296.416321 
	C396.617554,304.618622 393.721619,312.386871 390.707977,320.501648 
	C385.729431,327.170685 380.868591,333.493225 375.848938,340.087830 
	C369.264069,345.056427 362.838043,349.752960 356.203674,354.715942 
	C349.488159,357.377228 342.980988,359.772064 336.173401,362.353210 
	C328.885803,363.359467 321.898651,364.179382 314.454041,365.076355 
	C301.639069,365.103333 289.281555,365.053253 276.460510,365.078918 
	C264.639374,365.103729 253.281723,365.052734 241.460648,365.077881 
	C230.306320,365.103271 219.615402,365.052521 208.461060,365.077759 
	C197.958527,364.041748 187.919418,362.929688 177.467712,361.817261 
	C158.878342,355.625427 143.456406,345.611237 131.846405,329.996124 
	C122.886650,317.945557 118.198715,304.210236 115.103203,289.788727 
	C114.700516,287.912659 115.152847,285.853088 115.092033,283.439514 
	C115.082191,267.985504 115.189461,252.970444 115.214966,237.494339 
	C117.001022,224.253250 120.209785,211.911850 127.079308,200.394745 
	C133.733185,192.591537 140.311676,185.136826 147.062714,177.388428 
	C152.625824,173.791550 158.016403,170.488358 163.698975,166.983459 
	C171.065186,164.517410 178.139420,162.253052 185.604767,159.881348 
	C195.684341,159.362900 205.372787,158.951813 215.527679,158.510696 
	C226.016647,158.500946 236.039169,158.521210 246.528137,158.511108 
	C256.683960,158.501923 266.373352,158.523117 276.529175,158.512451 
	C285.018616,158.503265 293.041626,158.525940 301.531036,158.514542 
	C310.332947,158.747971 318.668457,159.015488 327.469543,159.284332 
M309.325043,231.871857 
	C301.826355,241.706940 302.252960,253.598511 310.395569,261.713440 
	C318.161255,269.452728 330.808228,270.284241 339.539825,263.629608 
	C349.607574,255.956650 351.121704,241.476990 342.863434,231.846100 
	C334.217560,221.763138 320.306122,221.548737 309.325043,231.871857 
M186.932861,267.952789 
	C188.093994,268.008087 189.255798,268.122711 190.416138,268.109375 
	C200.602692,267.992432 209.456970,260.974304 211.767014,251.211990 
	C214.053024,241.551178 209.483337,231.605484 200.570816,226.843918 
	C191.463943,221.978546 180.683609,223.823135 173.780518,231.450089 
	C162.089539,244.367050 169.121140,264.440643 186.932861,267.952789 
M243.456390,301.208832 
	C239.856705,297.643677 235.989166,294.304626 232.734451,290.448334 
	C229.627121,286.766724 225.938263,285.394867 222.408447,287.582672 
	C218.970154,289.713806 218.006668,293.545319 220.340012,297.623871 
	C228.615982,312.089661 241.593231,318.844971 257.847656,318.931213 
	C274.296997,319.018524 287.455872,312.314911 295.882294,297.690094 
	C298.189148,293.686279 297.253693,289.713226 293.906769,287.602448 
	C290.403961,285.393372 286.422302,286.511444 283.674347,290.475830 
	C273.854584,304.642151 260.269745,308.468475 243.456390,301.208832 
z"/>
<path fill="#030303" opacity="1.000000" stroke="none" 
	d="
M309.568420,231.604263 
	C320.306122,221.548737 334.217560,221.763138 342.863434,231.846100 
	C351.121704,241.476990 349.607574,255.956650 339.539825,263.629608 
	C330.808228,270.284241 318.161255,269.452728 310.395569,261.713440 
	C302.252960,253.598511 301.826355,241.706940 309.568420,231.604263 
z"/>
<path fill="#030303" opacity="1.000000" stroke="none" 
	d="
M186.502304,267.912445 
	C169.121140,264.440643 162.089539,244.367050 173.780518,231.450089 
	C180.683609,223.823135 191.463943,221.978546 200.570816,226.843918 
	C209.483337,231.605484 214.053024,241.551178 211.767014,251.211990 
	C209.456970,260.974304 200.602692,267.992432 190.416138,268.109375 
	C189.255798,268.122711 188.093994,268.008087 186.502304,267.912445 
z"/>
<path fill="#050505" opacity="1.000000" stroke="none" 
	d="
M243.775711,301.416321 
	C260.269745,308.468475 273.854584,304.642151 283.674347,290.475830 
	C286.422302,286.511444 290.403961,285.393372 293.906769,287.602448 
	C297.253693,289.713226 298.189148,293.686279 295.882294,297.690094 
	C287.455872,312.314911 274.296997,319.018524 257.847656,318.931213 
	C241.593231,318.844971 228.615982,312.089661 220.340012,297.623871 
	C218.006668,293.545319 218.970154,289.713806 222.408447,287.582672 
	C225.938263,285.394867 229.627121,286.766724 232.734451,290.448334 
	C235.989166,294.304626 239.856705,297.643677 243.775711,301.416321 
z"/>
</svg>